<svg xmlns="http://www.w3.org/2000/svg" xmlns:xlink="http://www.w3.org/1999/xlink" width="500" zoomAndPan="magnify" viewBox="0 0 375 374.999991" height="500" preserveAspectRatio="xMidYMid meet" version="1.0"><defs><g/><clipPath id="9b27699792"><path d="M 203 68.132812 L 224 68.132812 L 224 96 L 203 96 Z M 203 68.132812 " clip-rule="nonzero"/></clipPath><clipPath id="6489645775"><path d="M 105 187 L 219 187 L 219 237.632812 L 105 237.632812 Z M 105 187 " clip-rule="nonzero"/></clipPath><clipPath id="15e1611b24"><path d="M 206.851562 205.5 L 255.601562 205.5 L 255.601562 235.5 L 206.851562 235.5 Z M 206.851562 205.5 " clip-rule="nonzero"/></clipPath></defs><rect x="-37.5" width="450" fill="#ffffff" y="-37.499999" height="449.999989" fill-opacity="1"/><rect x="-37.5" width="450" fill="#235586" y="-37.499999" height="449.999989" fill-opacity="1"/><path fill="#ecc543" d="M 104.1875 176.324219 C 104.1875 176.324219 104.230469 176.324219 104.277344 176.230469 C 129.964844 178.214844 157.589844 179.414062 186.964844 179.457031 C 215.742188 179.503906 242.859375 178.445312 268.132812 176.597656 C 266.613281 170.050781 258.863281 140.167969 230.960938 124.164062 C 211.777344 113.1875 192.683594 114.25 175.574219 115.261719 C 159.433594 116.183594 150.765625 119.875 145.554688 122.78125 C 137.988281 126.929688 133.378906 131.679688 129.089844 136.109375 C 111.703125 154 103.953125 176.230469 104.1875 176.324219 Z M 104.1875 176.324219 " fill-opacity="1" fill-rule="nonzero"/><path fill="#ecc543" d="M 74.945312 141.042969 C 82.140625 143.578125 89.613281 145.425781 97.175781 146.578125 C 98.835938 146.808594 99.574219 144.269531 97.867188 143.996094 C 90.304688 142.886719 82.878906 141.042969 75.640625 138.460938 C 74.070312 137.90625 73.332031 140.488281 74.945312 141.042969 Z M 74.945312 141.042969 " fill-opacity="1" fill-rule="nonzero"/><path fill="#ecc543" d="M 277.082031 150.082031 C 281.460938 150.082031 285.84375 150.128906 290.175781 150.128906 C 291.882812 150.128906 291.882812 147.453125 290.175781 147.453125 C 285.796875 147.453125 281.414062 147.40625 277.082031 147.40625 C 275.328125 147.40625 275.328125 150.082031 277.082031 150.082031 Z M 277.082031 150.082031 " fill-opacity="1" fill-rule="nonzero"/><path fill="#ecc543" d="M 100.957031 117.109375 C 104.460938 118.445312 107.921875 119.78125 111.425781 121.167969 C 113.039062 121.765625 113.730469 119.230469 112.117188 118.582031 C 108.613281 117.246094 105.152344 115.910156 101.648438 114.523438 C 100.035156 113.925781 99.34375 116.507812 100.957031 117.109375 Z M 100.957031 117.109375 " fill-opacity="1" fill-rule="nonzero"/><path fill="#ecc543" d="M 111.101562 80.167969 C 119.820312 87.085938 127.707031 95.015625 134.625 103.734375 C 135.683594 105.070312 137.574219 103.179688 136.515625 101.84375 C 129.597656 93.082031 121.757812 85.195312 112.992188 78.277344 C 111.65625 77.261719 109.765625 79.105469 111.101562 80.167969 Z M 111.101562 80.167969 " fill-opacity="1" fill-rule="nonzero"/><path fill="#ecc543" d="M 165.382812 74.773438 C 167.089844 80.304688 168.796875 85.839844 170.503906 91.328125 C 171.011719 92.941406 173.59375 92.25 173.085938 90.636719 C 171.378906 85.101562 169.671875 79.566406 167.964844 74.078125 C 167.414062 72.417969 164.875 73.113281 165.382812 74.773438 Z M 165.382812 74.773438 " fill-opacity="1" fill-rule="nonzero"/><g clip-path="url(#9b27699792)"><path fill="#ecc543" d="M 206.152344 94.972656 C 211.132812 86.671875 216.757812 78.785156 222.9375 71.3125 C 224.046875 70.023438 222.152344 68.132812 221.046875 69.421875 C 214.730469 77.03125 208.964844 85.101562 203.84375 93.585938 C 202.96875 95.109375 205.273438 96.445312 206.152344 94.972656 Z M 206.152344 94.972656 " fill-opacity="1" fill-rule="nonzero"/></g><path fill="#ecc543" d="M 235.207031 103.6875 C 239.910156 100.367188 244.566406 97.046875 249.269531 93.679688 C 250.65625 92.710938 249.316406 90.40625 247.933594 91.375 C 243.230469 94.695312 238.570312 98.015625 233.867188 101.382812 C 232.484375 102.351562 233.820312 104.65625 235.207031 103.6875 Z M 235.207031 103.6875 " fill-opacity="1" fill-rule="nonzero"/><path fill="#ecc543" d="M 256.925781 125.5 C 270.855469 118.03125 285.289062 111.433594 300.09375 105.902344 C 301.660156 105.300781 301.015625 102.71875 299.402344 103.320312 C 284.367188 108.945312 269.746094 115.585938 255.636719 123.195312 C 254.066406 123.980469 255.40625 126.285156 256.925781 125.5 Z M 256.925781 125.5 " fill-opacity="1" fill-rule="nonzero"/><g clip-path="url(#6489645775)"><path fill="#ecc543" d="M 106.675781 192.003906 C 121.800781 195.921875 137.527344 193.292969 152.792969 191.585938 C 168.566406 189.789062 184.292969 189.835938 199.878906 192.972656 C 203.800781 193.753906 207.628906 194.722656 211.453125 195.875 C 212.652344 196.246094 215.421875 196.660156 215.972656 197.953125 C 216.527344 199.195312 214.777344 200.441406 213.945312 201.042969 C 210.902344 203.210938 207.027344 204.363281 203.570312 205.746094 C 199.789062 207.3125 195.960938 208.882812 192.179688 210.402344 C 188.304688 212.015625 184.429688 213.585938 180.511719 215.199219 C 177.003906 216.628906 173.363281 217.964844 169.996094 219.765625 C 167.226562 221.242188 164.460938 223.269531 163.125 226.175781 C 161.925781 228.804688 162.15625 231.800781 164.09375 233.96875 C 166.214844 236.320312 169.535156 237.152344 172.578125 237.472656 C 176.453125 237.9375 180.324219 237.566406 184.199219 237.335938 C 193.609375 236.78125 202.96875 236.183594 212.378906 235.628906 C 214.082031 235.539062 214.082031 232.863281 212.378906 232.953125 C 203.984375 233.460938 195.542969 233.96875 187.152344 234.476562 C 183.507812 234.707031 179.816406 235.03125 176.175781 234.984375 C 173.269531 234.9375 169.996094 234.753906 167.414062 233.230469 C 164.414062 231.433594 164.507812 228.066406 166.628906 225.53125 C 168.886719 222.808594 172.53125 221.332031 175.667969 219.996094 C 183.277344 216.8125 190.886719 213.722656 198.542969 210.589844 C 202.414062 208.972656 206.289062 207.40625 210.210938 205.792969 C 212.976562 204.640625 216.066406 203.347656 217.867188 200.8125 C 219.480469 198.503906 218.648438 195.96875 216.25 194.675781 C 214.820312 193.894531 213.160156 193.476562 211.59375 193.015625 C 209.703125 192.464844 207.765625 191.957031 205.875 191.449219 C 190.703125 187.714844 174.976562 186.652344 159.433594 188.082031 C 142.234375 189.652344 124.476562 193.707031 107.414062 189.28125 C 105.707031 189.003906 105.015625 191.585938 106.675781 192.003906 Z M 106.675781 192.003906 " fill-opacity="1" fill-rule="nonzero"/></g><g clip-path="url(#15e1611b24)"><path fill="#ecc543" d="M 246.558594 217.609375 C 245.632812 217.609375 244.746094 217.746094 243.898438 218.011719 L 239.359375 207.449219 L 240.710938 207.449219 C 241.246094 207.449219 241.6875 207.007812 241.6875 206.472656 C 241.6875 205.9375 241.246094 205.5 240.710938 205.5 L 235.253906 205.5 C 234.71875 205.5 234.28125 205.9375 234.28125 206.472656 C 234.28125 207.007812 234.71875 207.449219 235.253906 207.449219 L 237.242188 207.449219 L 240.390625 214.753906 L 226.816406 214.753906 L 225.871094 212.640625 L 227.304688 212.640625 C 227.839844 212.640625 228.277344 212.203125 228.277344 211.667969 C 228.277344 211.132812 227.839844 210.691406 227.304688 210.691406 L 221.835938 210.691406 C 221.300781 210.691406 220.863281 211.132812 220.863281 211.667969 C 220.863281 212.203125 221.300781 212.640625 221.835938 212.640625 L 223.738281 212.640625 L 225.0625 215.613281 L 221.390625 219.460938 C 219.871094 218.292969 217.960938 217.601562 215.902344 217.601562 C 210.925781 217.609375 206.871094 221.664062 206.871094 226.644531 C 206.871094 231.621094 210.925781 235.675781 215.902344 235.675781 C 220.738281 235.675781 224.691406 231.867188 224.925781 227.101562 L 230.050781 226.808594 L 231.359375 229.734375 L 230.871094 229.734375 C 230.335938 229.734375 229.894531 230.171875 229.894531 230.707031 C 229.894531 231.242188 230.335938 231.679688 230.871094 231.679688 L 234.679688 231.679688 C 235.214844 231.679688 235.65625 231.242188 235.65625 230.707031 C 235.65625 230.171875 235.214844 229.734375 234.679688 229.734375 L 233.492188 229.734375 L 231.914062 226.195312 L 241.363281 217.046875 L 242.105469 218.78125 C 239.367188 220.339844 237.515625 223.28125 237.515625 226.644531 C 237.515625 231.621094 241.570312 235.675781 246.546875 235.675781 C 251.527344 235.675781 255.589844 231.632812 255.589844 226.644531 C 255.589844 221.65625 251.539062 217.609375 246.558594 217.609375 Z M 221.449219 222.238281 C 222.140625 223.105469 222.636719 224.140625 222.851562 225.269531 L 218.308594 225.53125 Z M 215.902344 233.738281 C 211.996094 233.738281 208.820312 230.550781 208.820312 226.644531 C 208.820312 222.734375 211.996094 219.558594 215.902344 219.558594 C 217.441406 219.558594 218.875 220.054688 220.035156 220.894531 L 215.191406 225.972656 C 214.917969 226.261719 214.839844 226.691406 215.015625 227.054688 C 215.171875 227.402344 215.523438 227.617188 215.902344 227.617188 L 215.960938 227.617188 L 222.96875 227.21875 C 222.675781 230.863281 219.625 233.738281 215.902344 233.738281 Z M 224.820312 225.164062 C 224.546875 223.527344 223.835938 222.035156 222.800781 220.816406 L 225.921875 217.542969 L 229.203125 224.898438 Z M 231.066406 224.304688 L 227.683594 216.703125 L 238.910156 216.703125 Z M 246.558594 233.738281 C 242.652344 233.738281 239.472656 230.5625 239.472656 226.652344 C 239.472656 224.089844 240.847656 221.839844 242.894531 220.59375 L 245.671875 227.042969 C 245.828125 227.414062 246.1875 227.628906 246.566406 227.628906 C 246.695312 227.628906 246.832031 227.597656 246.949219 227.550781 C 247.445312 227.335938 247.667969 226.761719 247.453125 226.273438 L 244.679688 219.8125 C 245.273438 219.648438 245.90625 219.558594 246.558594 219.558594 C 250.464844 219.558594 253.644531 222.734375 253.644531 226.644531 C 253.644531 230.550781 250.464844 233.738281 246.558594 233.738281 Z M 246.558594 233.738281 " fill-opacity="1" fill-rule="nonzero"/></g><g fill="#c1ff72" fill-opacity="1"><g transform="translate(40.088791, 287.041517)"><g><path d="M 3.703125 4.765625 C 2.460938 4.128906 1.84375 3.117188 1.84375 1.734375 C 1.84375 1.140625 1.972656 0.359375 2.234375 -0.609375 C 2.578125 -1.921875 3.03125 -3.175781 3.59375 -4.375 C 3.882812 -5.082031 4.179688 -5.863281 4.484375 -6.71875 C 4.785156 -7.582031 5.023438 -8.519531 5.203125 -9.53125 C 5.953125 -11.25 6.613281 -12.921875 7.1875 -14.546875 C 7.769531 -16.171875 8.140625 -17.207031 8.296875 -17.65625 C 8.328125 -17.914062 8.941406 -19.332031 10.140625 -21.90625 L 11.09375 -23.921875 C 11.988281 -26.421875 12.816406 -28.4375 13.578125 -29.96875 C 14.347656 -31.507812 15.3125 -33.15625 16.46875 -34.90625 C 17.070312 -35.875 17.96875 -36.359375 19.15625 -36.359375 C 19.875 -36.359375 20.507812 -36.191406 21.0625 -35.859375 C 21.625 -35.523438 22 -35.054688 22.1875 -34.453125 C 22.519531 -33.671875 22.769531 -32.8125 22.9375 -31.875 C 23.113281 -30.945312 23.238281 -29.285156 23.3125 -26.890625 C 23.34375 -26.148438 23.359375 -25.066406 23.359375 -23.640625 C 23.441406 -20.503906 23.535156 -18.125 23.640625 -16.5 C 23.753906 -14.875 24 -13.390625 24.375 -12.046875 C 24.59375 -10.554688 24.722656 -9.566406 24.765625 -9.078125 C 24.992188 -7.316406 25.195312 -5.953125 25.375 -4.984375 C 25.5625 -4.015625 25.75 -3.53125 25.9375 -3.53125 C 26.382812 -3.53125 27.007812 -4.578125 27.8125 -6.671875 C 28.625 -8.765625 29.832031 -13.078125 31.4375 -19.609375 C 31.65625 -20.359375 31.914062 -21.441406 32.21875 -22.859375 C 32.519531 -24.273438 32.742188 -25.65625 32.890625 -27 C 33.296875 -28.53125 33.695312 -30.128906 34.09375 -31.796875 C 34.488281 -33.460938 34.6875 -34.367188 34.6875 -34.515625 C 34.6875 -34.703125 34.691406 -34.890625 34.703125 -35.078125 C 34.722656 -35.265625 34.71875 -35.488281 34.6875 -35.75 C 34.832031 -35.75 34.988281 -35.988281 35.15625 -36.46875 C 35.320312 -36.957031 35.40625 -37.410156 35.40625 -37.828125 C 35.40625 -38.910156 35.671875 -39.710938 36.203125 -40.234375 C 36.609375 -40.972656 37.203125 -41.34375 37.984375 -41.34375 C 38.585938 -41.34375 39.148438 -41.144531 39.671875 -40.75 C 40.191406 -40.363281 40.507812 -39.910156 40.625 -39.390625 C 40.738281 -38.609375 40.210938 -35.75 39.046875 -30.8125 C 39.046875 -30.363281 38.785156 -29.019531 38.265625 -26.78125 C 37.929688 -25.507812 37.671875 -24.296875 37.484375 -23.140625 C 37.335938 -22.054688 37.160156 -21.117188 36.953125 -20.328125 C 36.742188 -19.546875 36.566406 -19.175781 36.421875 -19.21875 C 34.890625 -12.644531 32.925781 -6.628906 30.53125 -1.171875 C 29.976562 0.128906 29.304688 1.144531 28.515625 1.875 C 27.734375 2.601562 26.910156 2.96875 26.046875 2.96875 C 25.003906 2.96875 24.054688 2.425781 23.203125 1.34375 C 22.078125 -0.113281 21.253906 -1.597656 20.734375 -3.109375 C 20.210938 -4.617188 19.78125 -6.796875 19.4375 -9.640625 C 18.769531 -13.785156 18.4375 -17.96875 18.4375 -22.1875 L 18.4375 -23.984375 C 18.46875 -26.597656 18.300781 -27.90625 17.9375 -27.90625 C 17.707031 -27.90625 17.441406 -27.566406 17.140625 -26.890625 C 16.847656 -26.222656 16.476562 -25.234375 16.03125 -23.921875 C 15.84375 -23.328125 15 -21.125 13.5 -17.3125 L 12.546875 -14.84375 C 11.878906 -13.5 11.375 -12.140625 11.03125 -10.765625 C 9.875 -7.773438 8.96875 -5.117188 8.3125 -2.796875 C 7.664062 -0.484375 7.304688 0.820312 7.234375 1.125 C 7.117188 1.53125 7.015625 1.921875 6.921875 2.296875 C 6.828125 2.671875 6.722656 3.007812 6.609375 3.3125 C 6.304688 4.09375 6.0625 4.625 5.875 4.90625 C 5.695312 5.1875 5.457031 5.328125 5.15625 5.328125 C 4.78125 5.328125 4.296875 5.140625 3.703125 4.765625 Z M 3.703125 4.765625 "/></g></g></g><g fill="#c1ff72" fill-opacity="1"><g transform="translate(72.86494, 287.041517)"><g><path d="M 9.40625 -0.390625 C 8.957031 -0.390625 8.601562 -0.460938 8.34375 -0.609375 C 8.082031 -0.765625 7.710938 -1.046875 7.234375 -1.453125 C 6.484375 -2.242188 5.898438 -3.054688 5.484375 -3.890625 C 5.078125 -4.734375 4.929688 -5.472656 5.046875 -6.109375 C 5.148438 -6.367188 5.191406 -6.628906 5.171875 -6.890625 C 5.160156 -7.148438 5.15625 -7.316406 5.15625 -7.390625 C 5.007812 -7.546875 4.9375 -7.648438 4.9375 -7.703125 C 4.9375 -7.753906 4.972656 -7.804688 5.046875 -7.859375 C 5.117188 -7.921875 5.171875 -7.988281 5.203125 -8.0625 C 5.429688 -8.0625 5.507812 -8.269531 5.4375 -8.6875 C 5.363281 -8.988281 5.492188 -9.640625 5.828125 -10.640625 C 6.160156 -11.648438 6.585938 -12.585938 7.109375 -13.453125 C 7.523438 -14.117188 8.132812 -14.957031 8.9375 -15.96875 C 9.738281 -16.976562 10.457031 -17.742188 11.09375 -18.265625 C 12.957031 -19.867188 14.640625 -20.84375 16.140625 -21.1875 C 16.878906 -21.363281 17.609375 -21.453125 18.328125 -21.453125 C 19.410156 -21.453125 20.25 -21.15625 20.84375 -20.5625 C 21.664062 -20.226562 22.265625 -19.742188 22.640625 -19.109375 C 23.015625 -18.472656 23.253906 -17.628906 23.359375 -16.578125 C 23.398438 -16.359375 23.421875 -15.988281 23.421875 -15.46875 C 23.421875 -12.695312 22.375 -9.816406 20.28125 -6.828125 C 19.425781 -5.597656 18.566406 -4.609375 17.703125 -3.859375 C 16.847656 -3.117188 15.800781 -2.375 14.5625 -1.625 C 13.894531 -1.175781 13.1875 -0.875 12.4375 -0.71875 C 11.6875 -0.570312 10.675781 -0.460938 9.40625 -0.390625 Z M 15.125 -7.234375 C 15.832031 -7.867188 16.34375 -8.507812 16.65625 -9.15625 C 16.976562 -9.8125 17.441406 -10.960938 18.046875 -12.609375 C 18.265625 -12.941406 18.375 -13.613281 18.375 -14.625 C 18.375 -15.519531 18.242188 -16.023438 17.984375 -16.140625 C 17.796875 -16.285156 17.570312 -16.359375 17.3125 -16.359375 C 16.976562 -16.359375 16.4375 -16.097656 15.6875 -15.578125 C 14.382812 -14.453125 13.289062 -13.28125 12.40625 -12.0625 C 11.53125 -10.851562 10.925781 -9.46875 10.59375 -7.90625 C 10.550781 -7.75 10.53125 -7.523438 10.53125 -7.234375 C 10.53125 -5.960938 10.976562 -5.328125 11.875 -5.328125 C 12.738281 -5.328125 13.820312 -5.960938 15.125 -7.234375 Z M 15.125 -7.234375 "/></g></g></g><g fill="#c1ff72" fill-opacity="1"><g transform="translate(93.70726, 287.041517)"><g><path d="M 6.671875 -1.515625 C 6.148438 -1.921875 5.738281 -2.3125 5.4375 -2.6875 C 5.132812 -3.0625 5.039062 -3.585938 5.15625 -4.265625 C 5.269531 -5.523438 5.550781 -7 6 -8.6875 L 6.28125 -9.8125 C 6.382812 -10.8125 6.96875 -12.796875 8.03125 -15.765625 C 9.101562 -18.742188 9.992188 -20.753906 10.703125 -21.796875 C 11.078125 -22.171875 11.710938 -22.359375 12.609375 -22.359375 C 13.359375 -22.359375 13.878906 -22.207031 14.171875 -21.90625 C 14.472656 -21.6875 14.625 -21.3125 14.625 -20.78125 C 14.625 -19.925781 14.082031 -18.414062 13 -16.25 L 12.4375 -15.078125 C 12.175781 -14.585938 11.960938 -14.132812 11.796875 -13.71875 C 11.628906 -13.3125 11.640625 -13.128906 11.828125 -13.171875 C 12.234375 -13.878906 13.226562 -14.847656 14.8125 -16.078125 C 16.40625 -17.316406 17.5 -18.082031 18.09375 -18.375 C 18.351562 -18.53125 18.6875 -18.679688 19.09375 -18.828125 C 19.507812 -18.972656 19.796875 -19.082031 19.953125 -19.15625 C 20.617188 -19.5 21.382812 -19.671875 22.25 -19.671875 C 22.84375 -19.671875 23.351562 -19.582031 23.78125 -19.40625 C 24.207031 -19.238281 24.5 -18.988281 24.65625 -18.65625 C 24.6875 -18.394531 24.785156 -18.1875 24.953125 -18.03125 C 25.128906 -17.882812 25.253906 -17.796875 25.328125 -17.765625 C 25.441406 -17.765625 25.515625 -17.71875 25.546875 -17.625 C 25.585938 -17.53125 25.609375 -17.460938 25.609375 -17.421875 C 25.609375 -17.128906 25.34375 -16.75 24.8125 -16.28125 C 24.289062 -15.8125 23.753906 -15.554688 23.203125 -15.515625 C 22.785156 -15.484375 22.351562 -15.390625 21.90625 -15.234375 C 21.457031 -15.085938 21.007812 -14.90625 20.5625 -14.6875 L 19.109375 -13.84375 C 17.835938 -13.207031 16.757812 -12.578125 15.875 -11.953125 C 15 -11.335938 14.113281 -10.546875 13.21875 -9.578125 C 13.03125 -9.390625 12.757812 -9.128906 12.40625 -8.796875 C 12.050781 -8.460938 11.742188 -8.070312 11.484375 -7.625 C 11.222656 -7.363281 10.953125 -6.679688 10.671875 -5.578125 C 10.390625 -4.472656 10.25 -3.789062 10.25 -3.53125 C 10.21875 -3.414062 10.144531 -3.191406 10.03125 -2.859375 C 9.914062 -2.523438 9.75 -2.226562 9.53125 -1.96875 C 9.1875 -1.550781 8.898438 -1.25 8.671875 -1.0625 C 8.453125 -0.875 8.210938 -0.78125 7.953125 -0.78125 C 7.578125 -0.78125 7.148438 -1.023438 6.671875 -1.515625 Z M 6.671875 -1.515625 "/></g></g></g><g fill="#c1ff72" fill-opacity="1"><g transform="translate(114.43752, 287.041517)"><g><path d="M 6.671875 -1.515625 C 6.148438 -1.921875 5.738281 -2.3125 5.4375 -2.6875 C 5.132812 -3.0625 5.039062 -3.585938 5.15625 -4.265625 C 5.269531 -5.523438 5.550781 -7 6 -8.6875 L 6.28125 -9.8125 C 6.382812 -10.8125 6.96875 -12.796875 8.03125 -15.765625 C 9.101562 -18.742188 9.992188 -20.753906 10.703125 -21.796875 C 11.078125 -22.171875 11.710938 -22.359375 12.609375 -22.359375 C 13.359375 -22.359375 13.878906 -22.207031 14.171875 -21.90625 C 14.472656 -21.6875 14.625 -21.3125 14.625 -20.78125 C 14.625 -19.925781 14.082031 -18.414062 13 -16.25 L 12.4375 -15.078125 C 12.175781 -14.585938 11.960938 -14.132812 11.796875 -13.71875 C 11.628906 -13.3125 11.640625 -13.128906 11.828125 -13.171875 C 12.234375 -13.878906 13.226562 -14.847656 14.8125 -16.078125 C 16.40625 -17.316406 17.5 -18.082031 18.09375 -18.375 C 18.351562 -18.53125 18.6875 -18.679688 19.09375 -18.828125 C 19.507812 -18.972656 19.796875 -19.082031 19.953125 -19.15625 C 20.617188 -19.5 21.382812 -19.671875 22.25 -19.671875 C 22.84375 -19.671875 23.351562 -19.582031 23.78125 -19.40625 C 24.207031 -19.238281 24.5 -18.988281 24.65625 -18.65625 C 24.6875 -18.394531 24.785156 -18.1875 24.953125 -18.03125 C 25.128906 -17.882812 25.253906 -17.796875 25.328125 -17.765625 C 25.441406 -17.765625 25.515625 -17.71875 25.546875 -17.625 C 25.585938 -17.53125 25.609375 -17.460938 25.609375 -17.421875 C 25.609375 -17.128906 25.34375 -16.75 24.8125 -16.28125 C 24.289062 -15.8125 23.753906 -15.554688 23.203125 -15.515625 C 22.785156 -15.484375 22.351562 -15.390625 21.90625 -15.234375 C 21.457031 -15.085938 21.007812 -14.90625 20.5625 -14.6875 L 19.109375 -13.84375 C 17.835938 -13.207031 16.757812 -12.578125 15.875 -11.953125 C 15 -11.335938 14.113281 -10.546875 13.21875 -9.578125 C 13.03125 -9.390625 12.757812 -9.128906 12.40625 -8.796875 C 12.050781 -8.460938 11.742188 -8.070312 11.484375 -7.625 C 11.222656 -7.363281 10.953125 -6.679688 10.671875 -5.578125 C 10.390625 -4.472656 10.25 -3.789062 10.25 -3.53125 C 10.21875 -3.414062 10.144531 -3.191406 10.03125 -2.859375 C 9.914062 -2.523438 9.75 -2.226562 9.53125 -1.96875 C 9.1875 -1.550781 8.898438 -1.25 8.671875 -1.0625 C 8.453125 -0.875 8.210938 -0.78125 7.953125 -0.78125 C 7.578125 -0.78125 7.148438 -1.023438 6.671875 -1.515625 Z M 6.671875 -1.515625 "/></g></g></g><g fill="#c1ff72" fill-opacity="1"><g transform="translate(135.16778, 287.041517)"><g><path d="M 11.203125 0.84375 C 10.304688 0.84375 9.378906 0.65625 8.421875 0.28125 C 7.472656 -0.09375 6.671875 -0.550781 6.015625 -1.09375 C 5.367188 -1.632812 5.046875 -2.128906 5.046875 -2.578125 C 5.046875 -3.023438 5.25 -3.304688 5.65625 -3.421875 L 5.9375 -3.640625 C 6.007812 -3.679688 6.160156 -3.703125 6.390625 -3.703125 C 6.535156 -3.734375 6.71875 -3.722656 6.9375 -3.671875 C 7.164062 -3.617188 7.359375 -3.59375 7.515625 -3.59375 C 7.773438 -3.507812 8.164062 -3.429688 8.6875 -3.359375 L 10.140625 -3.1875 C 10.890625 -3.1875 11.585938 -3.257812 12.234375 -3.40625 C 12.890625 -3.5625 13.21875 -3.734375 13.21875 -3.921875 C 13.21875 -4.035156 13.066406 -4.222656 12.765625 -4.484375 C 12.472656 -4.742188 12.160156 -4.875 11.828125 -4.875 C 11.828125 -5.019531 11.242188 -5.523438 10.078125 -6.390625 C 9.453125 -6.867188 8.847656 -7.351562 8.265625 -7.84375 C 7.679688 -8.332031 7.390625 -8.6875 7.390625 -8.90625 L 7.453125 -9.015625 L 7.453125 -9.296875 C 7.191406 -9.296875 6.945312 -9.648438 6.71875 -10.359375 C 6.5 -11.078125 6.390625 -11.769531 6.390625 -12.4375 C 6.390625 -13.707031 6.945312 -15.109375 8.0625 -16.640625 C 9.1875 -18.171875 10.578125 -19.550781 12.234375 -20.78125 C 13.898438 -22.019531 15.484375 -22.863281 16.984375 -23.3125 C 17.535156 -23.570312 18.351562 -23.703125 19.4375 -23.703125 C 20.144531 -23.703125 20.632812 -23.628906 20.90625 -23.484375 L 21.34375 -23.59375 C 21.789062 -23.59375 22.367188 -23.21875 23.078125 -22.46875 C 23.796875 -21.71875 24.242188 -21.117188 24.421875 -20.671875 C 24.421875 -19.441406 24.382812 -18.453125 24.3125 -17.703125 C 24.238281 -16.953125 24.050781 -16.578125 23.75 -16.578125 C 23.71875 -16.578125 23.664062 -16.554688 23.59375 -16.515625 C 23.519531 -16.484375 23.484375 -16.394531 23.484375 -16.25 C 23.484375 -15.726562 23.023438 -15.148438 22.109375 -14.515625 C 21.191406 -13.878906 20.359375 -13.5625 19.609375 -13.5625 L 19.390625 -13.609375 C 19.160156 -13.648438 18.832031 -13.875 18.40625 -14.28125 C 17.976562 -14.695312 17.765625 -15.109375 17.765625 -15.515625 C 17.765625 -15.628906 17.988281 -15.925781 18.4375 -16.40625 C 18.882812 -16.894531 19.265625 -17.375 19.578125 -17.84375 C 19.898438 -18.3125 20.0625 -18.804688 20.0625 -19.328125 C 20.0625 -19.515625 19.992188 -19.632812 19.859375 -19.6875 C 19.734375 -19.75 19.484375 -19.78125 19.109375 -19.78125 C 17.054688 -18.84375 15.582031 -17.960938 14.6875 -17.140625 C 14.570312 -16.921875 14.46875 -16.753906 14.375 -16.640625 C 14.28125 -16.523438 14.15625 -16.46875 14 -16.46875 C 14 -16.46875 14 -16.476562 14 -16.5 C 14 -16.519531 13.984375 -16.53125 13.953125 -16.53125 C 13.878906 -16.53125 13.632812 -16.3125 13.21875 -15.875 C 12.8125 -15.445312 12.429688 -14.953125 12.078125 -14.390625 C 11.722656 -13.835938 11.507812 -13.316406 11.4375 -12.828125 L 11.3125 -12.65625 L 11.3125 -12.390625 C 11.28125 -12.304688 11.265625 -12.15625 11.265625 -11.9375 C 11.265625 -11.601562 11.410156 -11.253906 11.703125 -10.890625 C 12.003906 -10.535156 12.601562 -10.039062 13.5 -9.40625 C 15.1875 -8.144531 16.335938 -7.203125 16.953125 -6.578125 C 17.566406 -5.960938 17.945312 -5.414062 18.09375 -4.9375 C 18.4375 -4.257812 18.609375 -3.660156 18.609375 -3.140625 C 18.609375 -1.867188 17.941406 -0.882812 16.609375 -0.1875 C 15.285156 0.5 13.484375 0.84375 11.203125 0.84375 Z M 11.203125 0.84375 "/></g></g></g><g fill="#c1ff72" fill-opacity="1"><g transform="translate(155.337772, 287.041517)"><g><path d="M 20.453125 0.78125 C 19.742188 0.78125 18.957031 0.445312 18.09375 -0.21875 C 17.238281 -0.894531 15.96875 -2.332031 14.28125 -4.53125 C 14.28125 -4.757812 14.054688 -5.285156 13.609375 -6.109375 C 13.160156 -6.929688 12.882812 -7.398438 12.78125 -7.515625 C 12.78125 -7.398438 12.691406 -7.613281 12.515625 -8.15625 C 12.347656 -8.695312 12.078125 -8.96875 11.703125 -8.96875 C 11.523438 -8.96875 11.21875 -8.566406 10.78125 -7.765625 C 10.351562 -6.960938 9.972656 -6.023438 9.640625 -4.953125 C 9.304688 -3.890625 9.140625 -2.945312 9.140625 -2.125 C 9.140625 -1.53125 8.96875 -1 8.625 -0.53125 C 8.289062 -0.0625 7.828125 0.171875 7.234375 0.171875 C 6.742188 0.0546875 6.101562 -0.507812 5.3125 -1.53125 C 4.53125 -2.5625 4.140625 -3.378906 4.140625 -3.984375 L 4.9375 -6.328125 L 6 -9.6875 C 6.332031 -10.175781 6.597656 -10.765625 6.796875 -11.453125 C 7.003906 -12.148438 7.128906 -12.550781 7.171875 -12.65625 C 7.503906 -13.332031 8.117188 -14.753906 9.015625 -16.921875 C 9.691406 -18.640625 10.179688 -19.796875 10.484375 -20.390625 C 11.484375 -22.710938 12.601562 -25.3125 13.84375 -28.1875 L 14 -28.578125 C 14.632812 -29.878906 15.296875 -31.390625 15.984375 -33.109375 C 16.679688 -34.828125 17.085938 -35.96875 17.203125 -36.53125 L 17.203125 -36.75 C 17.203125 -37.050781 17.414062 -37.273438 17.84375 -37.421875 C 18.269531 -37.578125 18.820312 -37.65625 19.5 -37.65625 C 19.832031 -37.65625 20.257812 -37.328125 20.78125 -36.671875 C 21.3125 -36.015625 21.578125 -35.425781 21.578125 -34.90625 C 21.578125 -33.632812 20.472656 -30.644531 18.265625 -25.9375 C 16.660156 -22.613281 15.492188 -20.054688 14.765625 -18.265625 C 14.035156 -16.472656 13.671875 -15.390625 13.671875 -15.015625 C 13.671875 -14.898438 13.691406 -14.84375 13.734375 -14.84375 C 13.804688 -14.882812 13.953125 -14.953125 14.171875 -15.046875 C 14.398438 -15.140625 14.660156 -15.28125 14.953125 -15.46875 C 15.222656 -15.613281 15.765625 -15.984375 16.578125 -16.578125 C 18.078125 -17.773438 19.109375 -18.453125 19.671875 -18.609375 C 21.304688 -19.722656 22.3125 -20.28125 22.6875 -20.28125 C 23.101562 -20.28125 23.535156 -20.023438 23.984375 -19.515625 C 24.429688 -19.015625 24.65625 -18.539062 24.65625 -18.09375 C 24.65625 -17.3125 24.035156 -16.476562 22.796875 -15.59375 C 21.566406 -14.71875 19.90625 -13.703125 17.8125 -12.546875 C 16.769531 -11.984375 16.175781 -11.628906 16.03125 -11.484375 C 16.03125 -11.453125 16.476562 -10.800781 17.375 -9.53125 C 17.664062 -8.96875 17.914062 -8.46875 18.125 -8.03125 C 18.332031 -7.601562 18.53125 -7.222656 18.71875 -6.890625 C 19.28125 -5.734375 19.726562 -4.9375 20.0625 -4.5 C 20.394531 -4.070312 20.878906 -3.859375 21.515625 -3.859375 C 21.703125 -3.859375 22.019531 -3.925781 22.46875 -4.0625 C 22.914062 -4.195312 23.253906 -4.265625 23.484375 -4.265625 C 24.035156 -4.265625 24.5 -4.078125 24.875 -3.703125 C 25.25 -3.328125 25.4375 -2.914062 25.4375 -2.46875 C 25.4375 -2.132812 25.109375 -1.703125 24.453125 -1.171875 C 23.804688 -0.648438 23.070312 -0.195312 22.25 0.1875 C 21.425781 0.582031 20.828125 0.78125 20.453125 0.78125 Z M 20.453125 0.78125 "/></g></g></g><g fill="#c1ff72" fill-opacity="1"><g transform="translate(176.852421, 287.041517)"><g><path d="M 12.5 0 C 10.363281 0 8.640625 -0.597656 7.328125 -1.796875 C 6.023438 -2.992188 5.375 -4.691406 5.375 -6.890625 C 5.375 -7.753906 5.429688 -8.707031 5.546875 -9.75 C 5.617188 -10.644531 5.984375 -11.875 6.640625 -13.4375 C 7.296875 -15.007812 8.191406 -16.539062 9.328125 -18.03125 C 10.460938 -19.53125 11.796875 -20.632812 13.328125 -21.34375 C 14.046875 -21.6875 14.644531 -21.921875 15.125 -22.046875 C 15.613281 -22.179688 16.175781 -22.25 16.8125 -22.25 C 18.34375 -22.25 19.582031 -21.96875 20.53125 -21.40625 C 21.488281 -20.84375 22.160156 -20.207031 22.546875 -19.5 C 22.941406 -18.789062 23.140625 -18.175781 23.140625 -17.65625 L 23.140625 -17.203125 C 23.140625 -16.753906 22.878906 -15.929688 22.359375 -14.734375 C 21.835938 -13.535156 21.003906 -12.414062 19.859375 -11.375 C 18.722656 -10.332031 17.257812 -9.753906 15.46875 -9.640625 C 14.570312 -9.640625 13.703125 -9.722656 12.859375 -9.890625 C 12.015625 -10.054688 11.484375 -10.140625 11.265625 -10.140625 C 10.703125 -10.140625 10.34375 -9.929688 10.1875 -9.515625 C 10.039062 -9.109375 9.96875 -8.421875 9.96875 -7.453125 C 10.082031 -6.410156 10.375 -5.679688 10.84375 -5.265625 C 11.3125 -4.859375 11.992188 -4.65625 12.890625 -4.65625 C 13.335938 -4.65625 13.859375 -4.785156 14.453125 -5.046875 C 15.054688 -5.335938 15.765625 -5.800781 16.578125 -6.4375 C 17.023438 -6.8125 17.378906 -7.070312 17.640625 -7.21875 C 17.910156 -7.375 18.234375 -7.453125 18.609375 -7.453125 C 18.941406 -7.453125 19.332031 -7.226562 19.78125 -6.78125 C 20.226562 -6.332031 20.46875 -5.898438 20.5 -5.484375 C 20.425781 -5.035156 20.015625 -4.363281 19.265625 -3.46875 C 18.523438 -2.570312 17.554688 -1.769531 16.359375 -1.0625 C 15.160156 -0.351562 13.875 0 12.5 0 Z M 14.453125 -13.5 C 15.160156 -13.5 15.644531 -13.578125 15.90625 -13.734375 C 16.28125 -13.910156 16.847656 -14.382812 17.609375 -15.15625 C 18.378906 -15.925781 18.785156 -16.457031 18.828125 -16.75 C 18.828125 -17.125 18.664062 -17.429688 18.34375 -17.671875 C 18.03125 -17.921875 17.59375 -18.082031 17.03125 -18.15625 L 16.421875 -18.15625 C 15.929688 -18.15625 15.226562 -17.753906 14.3125 -16.953125 C 13.394531 -16.148438 12.601562 -15.222656 11.9375 -14.171875 C 11.96875 -13.984375 12.242188 -13.820312 12.765625 -13.6875 C 13.296875 -13.5625 13.859375 -13.5 14.453125 -13.5 Z M 14.453125 -13.5 "/></g></g></g><g fill="#c1ff72" fill-opacity="1"><g transform="translate(196.125974, 287.041517)"><g><path d="M 24.765625 -1.34375 C 22.410156 -1.414062 21.234375 -2.742188 21.234375 -5.328125 C 21.234375 -6.035156 21.289062 -6.722656 21.40625 -7.390625 C 21.476562 -8.210938 21.515625 -8.796875 21.515625 -9.140625 L 21.515625 -10.03125 C 21.398438 -10.78125 21.15625 -11.15625 20.78125 -11.15625 C 20.113281 -11.15625 18.875 -10.507812 17.0625 -9.21875 C 15.25 -7.925781 13.351562 -6.382812 11.375 -4.59375 C 10.78125 -3.957031 10.273438 -3.359375 9.859375 -2.796875 C 9.484375 -2.316406 9.203125 -2.019531 9.015625 -1.90625 C 8.828125 -1.789062 8.53125 -1.734375 8.125 -1.734375 C 7.601562 -1.804688 7.003906 -2.195312 6.328125 -2.90625 C 5.660156 -3.625 5.210938 -4.257812 4.984375 -4.8125 C 4.984375 -5.863281 5.171875 -6.863281 5.546875 -7.8125 C 5.921875 -8.769531 6.484375 -9.976562 7.234375 -11.4375 C 7.566406 -12.550781 7.992188 -13.671875 8.515625 -14.796875 C 9.078125 -16.097656 9.476562 -17.09375 9.71875 -17.78125 C 9.957031 -18.476562 10.117188 -19.203125 10.203125 -19.953125 C 10.203125 -19.984375 10.191406 -20 10.171875 -20 C 10.148438 -20 10.140625 -20 10.140625 -20 C 10.140625 -20.15625 10.195312 -20.285156 10.3125 -20.390625 C 10.425781 -20.503906 10.554688 -20.5625 10.703125 -20.5625 C 10.773438 -20.675781 11 -20.734375 11.375 -20.734375 C 12.34375 -20.734375 13.179688 -20.46875 13.890625 -19.9375 C 14.597656 -19.414062 14.953125 -18.613281 14.953125 -17.53125 C 14.953125 -16.976562 14.847656 -16.445312 14.640625 -15.9375 C 14.441406 -15.4375 14.0625 -14.609375 13.5 -13.453125 L 12.890625 -12.21875 C 12.773438 -11.988281 12.601562 -11.660156 12.375 -11.234375 C 12.15625 -10.804688 12.046875 -10.535156 12.046875 -10.421875 C 12.984375 -11.054688 14.085938 -11.894531 15.359375 -12.9375 C 17.222656 -14.4375 18.75 -15.597656 19.9375 -16.421875 C 21.132812 -17.242188 22.015625 -17.65625 22.578125 -17.65625 C 23.066406 -17.65625 23.75 -17.382812 24.625 -16.84375 C 25.5 -16.300781 26.015625 -15.804688 26.171875 -15.359375 C 26.171875 -15.085938 26.140625 -14.691406 26.078125 -14.171875 C 26.023438 -13.648438 25.976562 -13.1875 25.9375 -12.78125 L 26 -11.03125 C 26.03125 -10.738281 26.046875 -10.289062 26.046875 -9.6875 C 26.046875 -8.5 25.972656 -7.660156 25.828125 -7.171875 C 25.867188 -7.128906 25.90625 -7.070312 25.9375 -7 C 25.976562 -6.925781 26 -6.867188 26 -6.828125 L 25.9375 -6.71875 C 25.976562 -6.34375 26.1875 -5.742188 26.5625 -4.921875 C 26.9375 -4.109375 27.125 -3.664062 27.125 -3.59375 C 27.125 -3.175781 26.851562 -2.710938 26.3125 -2.203125 C 25.769531 -1.703125 25.253906 -1.414062 24.765625 -1.34375 Z M 24.765625 -1.34375 "/></g></g></g><g fill="#c1ff72" fill-opacity="1"><g transform="translate(222.402945, 287.041517)"><g><path d="M 11.203125 0.84375 C 10.304688 0.84375 9.378906 0.65625 8.421875 0.28125 C 7.472656 -0.09375 6.671875 -0.550781 6.015625 -1.09375 C 5.367188 -1.632812 5.046875 -2.128906 5.046875 -2.578125 C 5.046875 -3.023438 5.25 -3.304688 5.65625 -3.421875 L 5.9375 -3.640625 C 6.007812 -3.679688 6.160156 -3.703125 6.390625 -3.703125 C 6.535156 -3.734375 6.71875 -3.722656 6.9375 -3.671875 C 7.164062 -3.617188 7.359375 -3.59375 7.515625 -3.59375 C 7.773438 -3.507812 8.164062 -3.429688 8.6875 -3.359375 L 10.140625 -3.1875 C 10.890625 -3.1875 11.585938 -3.257812 12.234375 -3.40625 C 12.890625 -3.5625 13.21875 -3.734375 13.21875 -3.921875 C 13.21875 -4.035156 13.066406 -4.222656 12.765625 -4.484375 C 12.472656 -4.742188 12.160156 -4.875 11.828125 -4.875 C 11.828125 -5.019531 11.242188 -5.523438 10.078125 -6.390625 C 9.453125 -6.867188 8.847656 -7.351562 8.265625 -7.84375 C 7.679688 -8.332031 7.390625 -8.6875 7.390625 -8.90625 L 7.453125 -9.015625 L 7.453125 -9.296875 C 7.191406 -9.296875 6.945312 -9.648438 6.71875 -10.359375 C 6.5 -11.078125 6.390625 -11.769531 6.390625 -12.4375 C 6.390625 -13.707031 6.945312 -15.109375 8.0625 -16.640625 C 9.1875 -18.171875 10.578125 -19.550781 12.234375 -20.78125 C 13.898438 -22.019531 15.484375 -22.863281 16.984375 -23.3125 C 17.535156 -23.570312 18.351562 -23.703125 19.4375 -23.703125 C 20.144531 -23.703125 20.632812 -23.628906 20.90625 -23.484375 L 21.34375 -23.59375 C 21.789062 -23.59375 22.367188 -23.21875 23.078125 -22.46875 C 23.796875 -21.71875 24.242188 -21.117188 24.421875 -20.671875 C 24.421875 -19.441406 24.382812 -18.453125 24.3125 -17.703125 C 24.238281 -16.953125 24.050781 -16.578125 23.75 -16.578125 C 23.71875 -16.578125 23.664062 -16.554688 23.59375 -16.515625 C 23.519531 -16.484375 23.484375 -16.394531 23.484375 -16.25 C 23.484375 -15.726562 23.023438 -15.148438 22.109375 -14.515625 C 21.191406 -13.878906 20.359375 -13.5625 19.609375 -13.5625 L 19.390625 -13.609375 C 19.160156 -13.648438 18.832031 -13.875 18.40625 -14.28125 C 17.976562 -14.695312 17.765625 -15.109375 17.765625 -15.515625 C 17.765625 -15.628906 17.988281 -15.925781 18.4375 -16.40625 C 18.882812 -16.894531 19.265625 -17.375 19.578125 -17.84375 C 19.898438 -18.3125 20.0625 -18.804688 20.0625 -19.328125 C 20.0625 -19.515625 19.992188 -19.632812 19.859375 -19.6875 C 19.734375 -19.75 19.484375 -19.78125 19.109375 -19.78125 C 17.054688 -18.84375 15.582031 -17.960938 14.6875 -17.140625 C 14.570312 -16.921875 14.46875 -16.753906 14.375 -16.640625 C 14.28125 -16.523438 14.15625 -16.46875 14 -16.46875 C 14 -16.46875 14 -16.476562 14 -16.5 C 14 -16.519531 13.984375 -16.53125 13.953125 -16.53125 C 13.878906 -16.53125 13.632812 -16.3125 13.21875 -15.875 C 12.8125 -15.445312 12.429688 -14.953125 12.078125 -14.390625 C 11.722656 -13.835938 11.507812 -13.316406 11.4375 -12.828125 L 11.3125 -12.65625 L 11.3125 -12.390625 C 11.28125 -12.304688 11.265625 -12.15625 11.265625 -11.9375 C 11.265625 -11.601562 11.410156 -11.253906 11.703125 -10.890625 C 12.003906 -10.535156 12.601562 -10.039062 13.5 -9.40625 C 15.1875 -8.144531 16.335938 -7.203125 16.953125 -6.578125 C 17.566406 -5.960938 17.945312 -5.414062 18.09375 -4.9375 C 18.4375 -4.257812 18.609375 -3.660156 18.609375 -3.140625 C 18.609375 -1.867188 17.941406 -0.882812 16.609375 -0.1875 C 15.285156 0.5 13.484375 0.84375 11.203125 0.84375 Z M 11.203125 0.84375 "/></g></g></g><g fill="#c1ff72" fill-opacity="1"><g transform="translate(242.572925, 287.041517)"><g><path d="M 7.953125 0.609375 C 7.835938 0.648438 7.691406 0.671875 7.515625 0.671875 C 6.722656 0.671875 6.066406 0.222656 5.546875 -0.671875 C 5.023438 -1.566406 4.765625 -2.707031 4.765625 -4.09375 C 4.765625 -4.832031 4.835938 -5.5625 4.984375 -6.28125 C 5.398438 -7.363281 5.609375 -8.144531 5.609375 -8.625 C 5.710938 -9.332031 6.09375 -10.609375 6.75 -12.453125 C 7.40625 -14.304688 7.828125 -15.421875 8.015625 -15.796875 C 8.160156 -15.796875 8.289062 -15.914062 8.40625 -16.15625 C 8.519531 -16.40625 8.578125 -16.679688 8.578125 -16.984375 C 8.578125 -17.316406 8.640625 -17.660156 8.765625 -18.015625 C 8.898438 -18.367188 9.039062 -18.617188 9.1875 -18.765625 C 9.1875 -18.878906 9.234375 -19.082031 9.328125 -19.375 C 9.421875 -19.675781 9.46875 -19.882812 9.46875 -20 C 9.46875 -20.070312 9.515625 -20.210938 9.609375 -20.421875 C 9.703125 -20.628906 9.75 -20.789062 9.75 -20.90625 C 10.34375 -22.0625 11.382812 -24.664062 12.875 -28.71875 C 14.375 -32.769531 15.125 -35.019531 15.125 -35.46875 C 15.125 -35.769531 15.234375 -36.050781 15.453125 -36.3125 C 15.679688 -36.570312 15.945312 -36.703125 16.25 -36.703125 C 16.363281 -36.816406 16.601562 -36.898438 16.96875 -36.953125 C 17.34375 -37.003906 17.644531 -37.03125 17.875 -37.03125 L 18.765625 -36.140625 C 19.179688 -35.765625 19.5 -35.425781 19.71875 -35.125 C 19.945312 -34.832031 20.0625 -34.476562 20.0625 -34.0625 C 20.0625 -33.394531 19.9375 -32.734375 19.6875 -32.078125 C 19.445312 -31.421875 18.75 -29.878906 17.59375 -27.453125 C 17.519531 -27.265625 17.222656 -26.59375 16.703125 -25.4375 C 16.328125 -24.6875 16.140625 -24.257812 16.140625 -24.15625 C 16.140625 -24.039062 16.0625 -23.804688 15.90625 -23.453125 C 15.757812 -23.097656 15.628906 -22.734375 15.515625 -22.359375 C 15.222656 -21.753906 14.75 -20.695312 14.09375 -19.1875 C 13.4375 -17.675781 13.109375 -16.847656 13.109375 -16.703125 C 13.109375 -16.285156 13.015625 -15.984375 12.828125 -15.796875 C 12.710938 -15.796875 12.632812 -15.710938 12.59375 -15.546875 C 12.5625 -15.378906 12.546875 -15.257812 12.546875 -15.1875 C 12.546875 -14.8125 12.25 -13.820312 11.65625 -12.21875 L 11.15625 -10.59375 C 10.4375 -8.164062 9.9375 -6.390625 9.65625 -5.265625 C 9.382812 -4.148438 9.25 -3.195312 9.25 -2.40625 C 9.25 -1.582031 9.113281 -0.910156 8.84375 -0.390625 C 8.582031 0.128906 8.285156 0.460938 7.953125 0.609375 Z M 7.953125 0.609375 "/></g></g></g><g fill="#c1ff72" fill-opacity="1"><g transform="translate(253.106203, 287.041517)"><g><path d="M 12.5 0 C 10.363281 0 8.640625 -0.597656 7.328125 -1.796875 C 6.023438 -2.992188 5.375 -4.691406 5.375 -6.890625 C 5.375 -7.753906 5.429688 -8.707031 5.546875 -9.75 C 5.617188 -10.644531 5.984375 -11.875 6.640625 -13.4375 C 7.296875 -15.007812 8.191406 -16.539062 9.328125 -18.03125 C 10.460938 -19.53125 11.796875 -20.632812 13.328125 -21.34375 C 14.046875 -21.6875 14.644531 -21.921875 15.125 -22.046875 C 15.613281 -22.179688 16.175781 -22.25 16.8125 -22.25 C 18.34375 -22.25 19.582031 -21.96875 20.53125 -21.40625 C 21.488281 -20.84375 22.160156 -20.207031 22.546875 -19.5 C 22.941406 -18.789062 23.140625 -18.175781 23.140625 -17.65625 L 23.140625 -17.203125 C 23.140625 -16.753906 22.878906 -15.929688 22.359375 -14.734375 C 21.835938 -13.535156 21.003906 -12.414062 19.859375 -11.375 C 18.722656 -10.332031 17.257812 -9.753906 15.46875 -9.640625 C 14.570312 -9.640625 13.703125 -9.722656 12.859375 -9.890625 C 12.015625 -10.054688 11.484375 -10.140625 11.265625 -10.140625 C 10.703125 -10.140625 10.34375 -9.929688 10.1875 -9.515625 C 10.039062 -9.109375 9.96875 -8.421875 9.96875 -7.453125 C 10.082031 -6.410156 10.375 -5.679688 10.84375 -5.265625 C 11.3125 -4.859375 11.992188 -4.65625 12.890625 -4.65625 C 13.335938 -4.65625 13.859375 -4.785156 14.453125 -5.046875 C 15.054688 -5.335938 15.765625 -5.800781 16.578125 -6.4375 C 17.023438 -6.8125 17.378906 -7.070312 17.640625 -7.21875 C 17.910156 -7.375 18.234375 -7.453125 18.609375 -7.453125 C 18.941406 -7.453125 19.332031 -7.226562 19.78125 -6.78125 C 20.226562 -6.332031 20.46875 -5.898438 20.5 -5.484375 C 20.425781 -5.035156 20.015625 -4.363281 19.265625 -3.46875 C 18.523438 -2.570312 17.554688 -1.769531 16.359375 -1.0625 C 15.160156 -0.351562 13.875 0 12.5 0 Z M 14.453125 -13.5 C 15.160156 -13.5 15.644531 -13.578125 15.90625 -13.734375 C 16.28125 -13.910156 16.847656 -14.382812 17.609375 -15.15625 C 18.378906 -15.925781 18.785156 -16.457031 18.828125 -16.75 C 18.828125 -17.125 18.664062 -17.429688 18.34375 -17.671875 C 18.03125 -17.921875 17.59375 -18.082031 17.03125 -18.15625 L 16.421875 -18.15625 C 15.929688 -18.15625 15.226562 -17.753906 14.3125 -16.953125 C 13.394531 -16.148438 12.601562 -15.222656 11.9375 -14.171875 C 11.96875 -13.984375 12.242188 -13.820312 12.765625 -13.6875 C 13.296875 -13.5625 13.859375 -13.5 14.453125 -13.5 Z M 14.453125 -13.5 "/></g></g></g><g fill="#c1ff72" fill-opacity="1"><g transform="translate(272.379745, 287.041517)"><g><path d="M 20.953125 1.0625 C 20.472656 1.175781 20.003906 1.0625 19.546875 0.71875 C 19.097656 0.382812 18.765625 -0.00390625 18.546875 -0.453125 C 18.359375 -0.972656 18.226562 -1.484375 18.15625 -1.984375 C 18.082031 -2.492188 18.023438 -3.175781 17.984375 -4.03125 L 17.9375 -5.9375 L 15.625 -3.859375 C 13.28125 -1.660156 11.097656 -0.5625 9.078125 -0.5625 C 8.484375 -0.675781 7.726562 -1.179688 6.8125 -2.078125 C 5.894531 -2.972656 5.304688 -3.738281 5.046875 -4.375 C 4.890625 -4.664062 4.8125 -5.128906 4.8125 -5.765625 C 4.8125 -7.191406 5.1875 -8.898438 5.9375 -10.890625 C 6.6875 -12.890625 7.617188 -14.507812 8.734375 -15.75 C 9.554688 -16.976562 10.546875 -17.910156 11.703125 -18.546875 C 12.867188 -19.179688 14.046875 -19.5 15.234375 -19.5 C 16.359375 -19.5 17.347656 -19.253906 18.203125 -18.765625 C 18.734375 -18.503906 19.164062 -18.375 19.5 -18.375 C 19.875 -18.375 20.117188 -18.617188 20.234375 -19.109375 C 20.265625 -19.296875 20.488281 -20.039062 20.90625 -21.34375 L 21.515625 -23.140625 C 22.335938 -25.609375 23.046875 -27.585938 23.640625 -29.078125 C 24.242188 -30.578125 24.972656 -32.222656 25.828125 -34.015625 C 26.203125 -34.796875 26.59375 -35.375 27 -35.75 C 27.414062 -36.125 27.789062 -36.289062 28.125 -36.25 C 28.613281 -36.25 29.144531 -36.085938 29.71875 -35.765625 C 30.300781 -35.453125 30.6875 -35.054688 30.875 -34.578125 C 30.988281 -34.304688 31.046875 -33.988281 31.046875 -33.625 C 31.046875 -33.207031 30.929688 -32.773438 30.703125 -32.328125 C 29.734375 -30.648438 28.535156 -27.90625 27.109375 -24.09375 C 25.691406 -20.28125 24.59375 -16.972656 23.8125 -14.171875 C 23.507812 -13.160156 23.289062 -11.757812 23.15625 -9.96875 C 23.03125 -8.175781 22.96875 -6.421875 22.96875 -4.703125 C 22.96875 -3.054688 23.023438 -2.03125 23.140625 -1.625 C 23.210938 -1.394531 23.25 -1.097656 23.25 -0.734375 C 23.25 -0.0976562 23.035156 0.335938 22.609375 0.578125 C 22.179688 0.828125 21.628906 0.988281 20.953125 1.0625 Z M 11.703125 -5.71875 C 12.566406 -6.050781 13.519531 -6.609375 14.5625 -7.390625 C 15.6875 -8.210938 16.5 -8.941406 17 -9.578125 C 17.507812 -10.210938 17.910156 -11.015625 18.203125 -11.984375 C 18.285156 -12.171875 18.328125 -12.4375 18.328125 -12.78125 C 18.328125 -13.445312 18.007812 -14.0625 17.375 -14.625 C 17 -14.925781 16.566406 -15.078125 16.078125 -15.078125 C 15.296875 -15.078125 14.472656 -14.664062 13.609375 -13.84375 C 12.640625 -12.945312 11.851562 -11.945312 11.25 -10.84375 C 10.65625 -9.738281 10.15625 -8.234375 9.75 -6.328125 C 9.675781 -6.066406 9.710938 -5.851562 9.859375 -5.6875 C 10.003906 -5.519531 10.25 -5.4375 10.59375 -5.4375 C 10.851562 -5.4375 11.222656 -5.53125 11.703125 -5.71875 Z M 11.703125 -5.71875 "/></g></g></g><g fill="#c1ff72" fill-opacity="1"><g transform="translate(295.463162, 287.041517)"><g><path d="M 12.5 0 C 10.363281 0 8.640625 -0.597656 7.328125 -1.796875 C 6.023438 -2.992188 5.375 -4.691406 5.375 -6.890625 C 5.375 -7.753906 5.429688 -8.707031 5.546875 -9.75 C 5.617188 -10.644531 5.984375 -11.875 6.640625 -13.4375 C 7.296875 -15.007812 8.191406 -16.539062 9.328125 -18.03125 C 10.460938 -19.53125 11.796875 -20.632812 13.328125 -21.34375 C 14.046875 -21.6875 14.644531 -21.921875 15.125 -22.046875 C 15.613281 -22.179688 16.175781 -22.25 16.8125 -22.25 C 18.34375 -22.25 19.582031 -21.96875 20.53125 -21.40625 C 21.488281 -20.84375 22.160156 -20.207031 22.546875 -19.5 C 22.941406 -18.789062 23.140625 -18.175781 23.140625 -17.65625 L 23.140625 -17.203125 C 23.140625 -16.753906 22.878906 -15.929688 22.359375 -14.734375 C 21.835938 -13.535156 21.003906 -12.414062 19.859375 -11.375 C 18.722656 -10.332031 17.257812 -9.753906 15.46875 -9.640625 C 14.570312 -9.640625 13.703125 -9.722656 12.859375 -9.890625 C 12.015625 -10.054688 11.484375 -10.140625 11.265625 -10.140625 C 10.703125 -10.140625 10.34375 -9.929688 10.1875 -9.515625 C 10.039062 -9.109375 9.96875 -8.421875 9.96875 -7.453125 C 10.082031 -6.410156 10.375 -5.679688 10.84375 -5.265625 C 11.3125 -4.859375 11.992188 -4.65625 12.890625 -4.65625 C 13.335938 -4.65625 13.859375 -4.785156 14.453125 -5.046875 C 15.054688 -5.335938 15.765625 -5.800781 16.578125 -6.4375 C 17.023438 -6.8125 17.378906 -7.070312 17.640625 -7.21875 C 17.910156 -7.375 18.234375 -7.453125 18.609375 -7.453125 C 18.941406 -7.453125 19.332031 -7.226562 19.78125 -6.78125 C 20.226562 -6.332031 20.46875 -5.898438 20.5 -5.484375 C 20.425781 -5.035156 20.015625 -4.363281 19.265625 -3.46875 C 18.523438 -2.570312 17.554688 -1.769531 16.359375 -1.0625 C 15.160156 -0.351562 13.875 0 12.5 0 Z M 14.453125 -13.5 C 15.160156 -13.5 15.644531 -13.578125 15.90625 -13.734375 C 16.28125 -13.910156 16.847656 -14.382812 17.609375 -15.15625 C 18.378906 -15.925781 18.785156 -16.457031 18.828125 -16.75 C 18.828125 -17.125 18.664062 -17.429688 18.34375 -17.671875 C 18.03125 -17.921875 17.59375 -18.082031 17.03125 -18.15625 L 16.421875 -18.15625 C 15.929688 -18.15625 15.226562 -17.753906 14.3125 -16.953125 C 13.394531 -16.148438 12.601562 -15.222656 11.9375 -14.171875 C 11.96875 -13.984375 12.242188 -13.820312 12.765625 -13.6875 C 13.296875 -13.5625 13.859375 -13.5 14.453125 -13.5 Z M 14.453125 -13.5 "/></g></g></g><g fill="#c1ff72" fill-opacity="1"><g transform="translate(314.736704, 287.041517)"><g><path d="M 6.671875 -1.515625 C 6.148438 -1.921875 5.738281 -2.3125 5.4375 -2.6875 C 5.132812 -3.0625 5.039062 -3.585938 5.15625 -4.265625 C 5.269531 -5.523438 5.550781 -7 6 -8.6875 L 6.28125 -9.8125 C 6.382812 -10.8125 6.96875 -12.796875 8.03125 -15.765625 C 9.101562 -18.742188 9.992188 -20.753906 10.703125 -21.796875 C 11.078125 -22.171875 11.710938 -22.359375 12.609375 -22.359375 C 13.359375 -22.359375 13.878906 -22.207031 14.171875 -21.90625 C 14.472656 -21.6875 14.625 -21.3125 14.625 -20.78125 C 14.625 -19.925781 14.082031 -18.414062 13 -16.25 L 12.4375 -15.078125 C 12.175781 -14.585938 11.960938 -14.132812 11.796875 -13.71875 C 11.628906 -13.3125 11.640625 -13.128906 11.828125 -13.171875 C 12.234375 -13.878906 13.226562 -14.847656 14.8125 -16.078125 C 16.40625 -17.316406 17.5 -18.082031 18.09375 -18.375 C 18.351562 -18.53125 18.6875 -18.679688 19.09375 -18.828125 C 19.507812 -18.972656 19.796875 -19.082031 19.953125 -19.15625 C 20.617188 -19.5 21.382812 -19.671875 22.25 -19.671875 C 22.84375 -19.671875 23.351562 -19.582031 23.78125 -19.40625 C 24.207031 -19.238281 24.5 -18.988281 24.65625 -18.65625 C 24.6875 -18.394531 24.785156 -18.1875 24.953125 -18.03125 C 25.128906 -17.882812 25.253906 -17.796875 25.328125 -17.765625 C 25.441406 -17.765625 25.515625 -17.71875 25.546875 -17.625 C 25.585938 -17.53125 25.609375 -17.460938 25.609375 -17.421875 C 25.609375 -17.128906 25.34375 -16.75 24.8125 -16.28125 C 24.289062 -15.8125 23.753906 -15.554688 23.203125 -15.515625 C 22.785156 -15.484375 22.351562 -15.390625 21.90625 -15.234375 C 21.457031 -15.085938 21.007812 -14.90625 20.5625 -14.6875 L 19.109375 -13.84375 C 17.835938 -13.207031 16.757812 -12.578125 15.875 -11.953125 C 15 -11.335938 14.113281 -10.546875 13.21875 -9.578125 C 13.03125 -9.390625 12.757812 -9.128906 12.40625 -8.796875 C 12.050781 -8.460938 11.742188 -8.070312 11.484375 -7.625 C 11.222656 -7.363281 10.953125 -6.679688 10.671875 -5.578125 C 10.390625 -4.472656 10.25 -3.789062 10.25 -3.53125 C 10.21875 -3.414062 10.144531 -3.191406 10.03125 -2.859375 C 9.914062 -2.523438 9.75 -2.226562 9.53125 -1.96875 C 9.1875 -1.550781 8.898438 -1.25 8.671875 -1.0625 C 8.453125 -0.875 8.210938 -0.78125 7.953125 -0.78125 C 7.578125 -0.78125 7.148438 -1.023438 6.671875 -1.515625 Z M 6.671875 -1.515625 "/></g></g></g><g fill="#ecc543" fill-opacity="1"><g transform="translate(135.331894, 312.82454)"><g><path d="M 6.609375 -6.4375 L 4.125 -6.4375 L 4.125 0 L 2.625 0 L 2.625 -6.4375 L 0.15625 -6.4375 L 0.15625 -7.75 L 6.609375 -7.75 Z M 6.609375 -6.4375 "/></g></g></g><g fill="#ecc543" fill-opacity="1"><g transform="translate(142.303779, 312.82454)"><g><path d="M 3.015625 -7.75 L 4.34375 -7.75 L 7.296875 0 L 5.75 0 L 5.03125 -1.9375 L 2.3125 -1.9375 L 1.609375 0 L 0.046875 0 Z M 4.75 -3 L 3.6875 -6.046875 L 2.5625 -3 Z M 4.75 -3 "/></g></g></g><g fill="#ecc543" fill-opacity="1"><g transform="translate(149.853901, 312.82454)"><g><path d="M 5.421875 -5.71875 C 5.378906 -5.769531 5.289062 -5.835938 5.15625 -5.921875 C 5.019531 -6.015625 4.851562 -6.101562 4.65625 -6.1875 C 4.46875 -6.269531 4.257812 -6.335938 4.03125 -6.390625 C 3.800781 -6.453125 3.570312 -6.484375 3.34375 -6.484375 C 2.925781 -6.484375 2.613281 -6.40625 2.40625 -6.25 C 2.207031 -6.101562 2.109375 -5.890625 2.109375 -5.609375 C 2.109375 -5.453125 2.144531 -5.320312 2.21875 -5.21875 C 2.300781 -5.113281 2.414062 -5.019531 2.5625 -4.9375 C 2.707031 -4.851562 2.890625 -4.78125 3.109375 -4.71875 C 3.328125 -4.65625 3.582031 -4.585938 3.875 -4.515625 C 4.25 -4.410156 4.59375 -4.300781 4.90625 -4.1875 C 5.21875 -4.070312 5.476562 -3.925781 5.6875 -3.75 C 5.90625 -3.570312 6.070312 -3.359375 6.1875 -3.109375 C 6.3125 -2.867188 6.375 -2.570312 6.375 -2.21875 C 6.375 -1.800781 6.289062 -1.441406 6.125 -1.140625 C 5.96875 -0.847656 5.753906 -0.609375 5.484375 -0.421875 C 5.222656 -0.242188 4.921875 -0.113281 4.578125 -0.03125 C 4.234375 0.0507812 3.875 0.09375 3.5 0.09375 C 2.914062 0.09375 2.335938 0.00390625 1.765625 -0.171875 C 1.203125 -0.347656 0.691406 -0.597656 0.234375 -0.921875 L 0.90625 -2.21875 C 0.96875 -2.15625 1.082031 -2.066406 1.25 -1.953125 C 1.425781 -1.847656 1.628906 -1.742188 1.859375 -1.640625 C 2.097656 -1.535156 2.359375 -1.445312 2.640625 -1.375 C 2.921875 -1.300781 3.210938 -1.265625 3.515625 -1.265625 C 4.347656 -1.265625 4.765625 -1.53125 4.765625 -2.0625 C 4.765625 -2.226562 4.71875 -2.367188 4.625 -2.484375 C 4.53125 -2.609375 4.394531 -2.710938 4.21875 -2.796875 C 4.039062 -2.878906 3.828125 -2.957031 3.578125 -3.03125 C 3.335938 -3.101562 3.0625 -3.1875 2.75 -3.28125 C 2.382812 -3.375 2.0625 -3.484375 1.78125 -3.609375 C 1.507812 -3.734375 1.28125 -3.875 1.09375 -4.03125 C 0.914062 -4.195312 0.78125 -4.382812 0.6875 -4.59375 C 0.601562 -4.8125 0.5625 -5.070312 0.5625 -5.375 C 0.5625 -5.769531 0.632812 -6.117188 0.78125 -6.421875 C 0.925781 -6.722656 1.125 -6.976562 1.375 -7.1875 C 1.632812 -7.394531 1.9375 -7.550781 2.28125 -7.65625 C 2.625 -7.757812 2.992188 -7.8125 3.390625 -7.8125 C 3.929688 -7.8125 4.429688 -7.722656 4.890625 -7.546875 C 5.347656 -7.378906 5.75 -7.179688 6.09375 -6.953125 Z M 5.421875 -5.71875 "/></g></g></g><g fill="#ecc543" fill-opacity="1"><g transform="translate(156.760326, 312.82454)"><g><path d="M 6.609375 -6.4375 L 4.125 -6.4375 L 4.125 0 L 2.625 0 L 2.625 -6.4375 L 0.15625 -6.4375 L 0.15625 -7.75 L 6.609375 -7.75 Z M 6.609375 -6.4375 "/></g></g></g><g fill="#ecc543" fill-opacity="1"><g transform="translate(163.732212, 312.82454)"><g><path d="M 6.1875 -1.328125 L 6.1875 0 L 0.8125 0 L 0.8125 -7.75 L 6.09375 -7.75 L 6.09375 -6.4375 L 2.3125 -6.4375 L 2.3125 -4.5625 L 5.578125 -4.5625 L 5.578125 -3.34375 L 2.3125 -3.34375 L 2.3125 -1.328125 Z M 6.1875 -1.328125 "/></g></g></g><g fill="#ecc543" fill-opacity="1"><g transform="translate(170.507717, 312.82454)"><g/></g></g><g fill="#ecc543" fill-opacity="1"><g transform="translate(173.344658, 312.82454)"><g><path d="M 4.125 0.046875 C 3.550781 0.046875 3.03125 -0.0625 2.5625 -0.28125 C 2.101562 -0.5 1.707031 -0.789062 1.375 -1.15625 C 1.050781 -1.53125 0.796875 -1.953125 0.609375 -2.421875 C 0.429688 -2.898438 0.34375 -3.382812 0.34375 -3.875 C 0.34375 -4.394531 0.4375 -4.890625 0.625 -5.359375 C 0.820312 -5.835938 1.085938 -6.257812 1.421875 -6.625 C 1.765625 -6.988281 2.164062 -7.273438 2.625 -7.484375 C 3.09375 -7.703125 3.601562 -7.8125 4.15625 -7.8125 C 4.707031 -7.8125 5.210938 -7.695312 5.671875 -7.46875 C 6.140625 -7.238281 6.535156 -6.9375 6.859375 -6.5625 C 7.191406 -6.1875 7.445312 -5.765625 7.625 -5.296875 C 7.8125 -4.828125 7.90625 -4.347656 7.90625 -3.859375 C 7.90625 -3.335938 7.8125 -2.84375 7.625 -2.375 C 7.4375 -1.90625 7.171875 -1.488281 6.828125 -1.125 C 6.492188 -0.769531 6.09375 -0.484375 5.625 -0.265625 C 5.164062 -0.0546875 4.664062 0.046875 4.125 0.046875 Z M 1.875 -3.875 C 1.875 -3.539062 1.921875 -3.21875 2.015625 -2.90625 C 2.117188 -2.59375 2.265625 -2.316406 2.453125 -2.078125 C 2.648438 -1.835938 2.890625 -1.644531 3.171875 -1.5 C 3.453125 -1.351562 3.769531 -1.28125 4.125 -1.28125 C 4.488281 -1.28125 4.8125 -1.351562 5.09375 -1.5 C 5.375 -1.644531 5.609375 -1.84375 5.796875 -2.09375 C 5.992188 -2.34375 6.140625 -2.617188 6.234375 -2.921875 C 6.335938 -3.234375 6.390625 -3.550781 6.390625 -3.875 C 6.390625 -4.207031 6.335938 -4.53125 6.234375 -4.84375 C 6.128906 -5.15625 5.976562 -5.429688 5.78125 -5.671875 C 5.59375 -5.921875 5.359375 -6.113281 5.078125 -6.25 C 4.796875 -6.394531 4.476562 -6.46875 4.125 -6.46875 C 3.757812 -6.46875 3.4375 -6.390625 3.15625 -6.234375 C 2.875 -6.085938 2.632812 -5.890625 2.4375 -5.640625 C 2.25 -5.398438 2.109375 -5.125 2.015625 -4.8125 C 1.921875 -4.507812 1.875 -4.195312 1.875 -3.875 Z M 1.875 -3.875 "/></g></g></g><g fill="#ecc543" fill-opacity="1"><g transform="translate(181.811234, 312.82454)"><g><path d="M 0.8125 0 L 0.8125 -7.75 L 6.015625 -7.75 L 6.015625 -6.4375 L 2.3125 -6.4375 L 2.3125 -4.4375 L 5.390625 -4.4375 L 5.390625 -3.21875 L 2.3125 -3.21875 L 2.3125 0 Z M 0.8125 0 "/></g></g></g><g fill="#ecc543" fill-opacity="1"><g transform="translate(188.292157, 312.82454)"><g/></g></g><g fill="#ecc543" fill-opacity="1"><g transform="translate(191.129095, 312.82454)"><g><path d="M 5.421875 -5.71875 C 5.378906 -5.769531 5.289062 -5.835938 5.15625 -5.921875 C 5.019531 -6.015625 4.851562 -6.101562 4.65625 -6.1875 C 4.46875 -6.269531 4.257812 -6.335938 4.03125 -6.390625 C 3.800781 -6.453125 3.570312 -6.484375 3.34375 -6.484375 C 2.925781 -6.484375 2.613281 -6.40625 2.40625 -6.25 C 2.207031 -6.101562 2.109375 -5.890625 2.109375 -5.609375 C 2.109375 -5.453125 2.144531 -5.320312 2.21875 -5.21875 C 2.300781 -5.113281 2.414062 -5.019531 2.5625 -4.9375 C 2.707031 -4.851562 2.890625 -4.78125 3.109375 -4.71875 C 3.328125 -4.65625 3.582031 -4.585938 3.875 -4.515625 C 4.25 -4.410156 4.59375 -4.300781 4.90625 -4.1875 C 5.21875 -4.070312 5.476562 -3.925781 5.6875 -3.75 C 5.90625 -3.570312 6.070312 -3.359375 6.1875 -3.109375 C 6.3125 -2.867188 6.375 -2.570312 6.375 -2.21875 C 6.375 -1.800781 6.289062 -1.441406 6.125 -1.140625 C 5.96875 -0.847656 5.753906 -0.609375 5.484375 -0.421875 C 5.222656 -0.242188 4.921875 -0.113281 4.578125 -0.03125 C 4.234375 0.0507812 3.875 0.09375 3.5 0.09375 C 2.914062 0.09375 2.335938 0.00390625 1.765625 -0.171875 C 1.203125 -0.347656 0.691406 -0.597656 0.234375 -0.921875 L 0.90625 -2.21875 C 0.96875 -2.15625 1.082031 -2.066406 1.25 -1.953125 C 1.425781 -1.847656 1.628906 -1.742188 1.859375 -1.640625 C 2.097656 -1.535156 2.359375 -1.445312 2.640625 -1.375 C 2.921875 -1.300781 3.210938 -1.265625 3.515625 -1.265625 C 4.347656 -1.265625 4.765625 -1.53125 4.765625 -2.0625 C 4.765625 -2.226562 4.71875 -2.367188 4.625 -2.484375 C 4.53125 -2.609375 4.394531 -2.710938 4.21875 -2.796875 C 4.039062 -2.878906 3.828125 -2.957031 3.578125 -3.03125 C 3.335938 -3.101562 3.0625 -3.1875 2.75 -3.28125 C 2.382812 -3.375 2.0625 -3.484375 1.78125 -3.609375 C 1.507812 -3.734375 1.28125 -3.875 1.09375 -4.03125 C 0.914062 -4.195312 0.78125 -4.382812 0.6875 -4.59375 C 0.601562 -4.8125 0.5625 -5.070312 0.5625 -5.375 C 0.5625 -5.769531 0.632812 -6.117188 0.78125 -6.421875 C 0.925781 -6.722656 1.125 -6.976562 1.375 -7.1875 C 1.632812 -7.394531 1.9375 -7.550781 2.28125 -7.65625 C 2.625 -7.757812 2.992188 -7.8125 3.390625 -7.8125 C 3.929688 -7.8125 4.429688 -7.722656 4.890625 -7.546875 C 5.347656 -7.378906 5.75 -7.179688 6.09375 -6.953125 Z M 5.421875 -5.71875 "/></g></g></g><g fill="#ecc543" fill-opacity="1"><g transform="translate(198.035518, 312.82454)"><g><path d="M 3.484375 -7.734375 L 4.875 -7.734375 L 5.75 -5.171875 L 6.625 -7.734375 L 8.015625 -7.734375 L 6.6875 -4.203125 L 7.671875 -1.71875 L 9.875 -7.75 L 11.515625 -7.75 L 8.359375 0 L 7.09375 0 L 5.75 -3.25 L 4.40625 0 L 3.140625 0 L 0 -7.75 L 1.609375 -7.75 L 3.828125 -1.71875 L 4.78125 -4.203125 Z M 3.484375 -7.734375 "/></g></g></g><g fill="#ecc543" fill-opacity="1"><g transform="translate(209.74241, 312.82454)"><g><path d="M 6.1875 -1.328125 L 6.1875 0 L 0.8125 0 L 0.8125 -7.75 L 6.09375 -7.75 L 6.09375 -6.4375 L 2.3125 -6.4375 L 2.3125 -4.5625 L 5.578125 -4.5625 L 5.578125 -3.34375 L 2.3125 -3.34375 L 2.3125 -1.328125 Z M 6.1875 -1.328125 "/></g></g></g><g fill="#ecc543" fill-opacity="1"><g transform="translate(216.517918, 312.82454)"><g><path d="M 0.8125 0 L 0.8125 -7.75 L 3.625 -7.75 C 4.257812 -7.75 4.8125 -7.644531 5.28125 -7.4375 C 5.757812 -7.238281 6.160156 -6.960938 6.484375 -6.609375 C 6.804688 -6.265625 7.046875 -5.859375 7.203125 -5.390625 C 7.367188 -4.921875 7.453125 -4.421875 7.453125 -3.890625 C 7.453125 -3.296875 7.359375 -2.757812 7.171875 -2.28125 C 6.992188 -1.8125 6.738281 -1.40625 6.40625 -1.0625 C 6.070312 -0.726562 5.671875 -0.46875 5.203125 -0.28125 C 4.734375 -0.09375 4.207031 0 3.625 0 Z M 5.9375 -3.890625 C 5.9375 -4.253906 5.882812 -4.59375 5.78125 -4.90625 C 5.675781 -5.226562 5.523438 -5.5 5.328125 -5.71875 C 5.128906 -5.945312 4.882812 -6.125 4.59375 -6.25 C 4.3125 -6.375 3.988281 -6.4375 3.625 -6.4375 L 2.3125 -6.4375 L 2.3125 -1.328125 L 3.625 -1.328125 C 4 -1.328125 4.328125 -1.390625 4.609375 -1.515625 C 4.898438 -1.648438 5.140625 -1.832031 5.328125 -2.0625 C 5.523438 -2.289062 5.675781 -2.5625 5.78125 -2.875 C 5.882812 -3.1875 5.9375 -3.523438 5.9375 -3.890625 Z M 5.9375 -3.890625 "/></g></g></g><g fill="#ecc543" fill-opacity="1"><g transform="translate(224.548088, 312.82454)"><g><path d="M 6.1875 -1.328125 L 6.1875 0 L 0.8125 0 L 0.8125 -7.75 L 6.09375 -7.75 L 6.09375 -6.4375 L 2.3125 -6.4375 L 2.3125 -4.5625 L 5.578125 -4.5625 L 5.578125 -3.34375 L 2.3125 -3.34375 L 2.3125 -1.328125 Z M 6.1875 -1.328125 "/></g></g></g><g fill="#ecc543" fill-opacity="1"><g transform="translate(231.323596, 312.82454)"><g><path d="M 2.3125 -4.96875 L 2.3125 0 L 0.8125 0 L 0.8125 -7.75 L 1.984375 -7.75 L 6.015625 -2.671875 L 6.015625 -7.75 L 7.53125 -7.75 L 7.53125 0 L 6.296875 0 Z M 2.3125 -4.96875 "/></g></g></g></svg>